<?xml version="1.0" encoding="UTF-8" standalone="no"?><svg width="495" height="125" viewBox="0 0 495 125" fill="none" xmlns="http://www.w3.org/2000/svg">
<path fill-rule="evenodd" clip-rule="evenodd" d="M55.9734 7.1561H6.76587V56.3636H55.9734V7.1561ZM0.265869 0.656097V62.8636H62.4734V0.656097H0.265869Z" fill="#FB632D"/>
<path fill-rule="evenodd" clip-rule="evenodd" d="M88.7626 86.628L95.1136 86.64L95.1466 69.589C95.1556 64.889 92.6106 61.884 87.3096 61.874C85.7137 61.849 84.1312 62.1698 82.671 62.8143C81.2108 63.4589 79.9075 64.4119 78.8506 65.608L78.8566 62.457L72.5056 62.445L72.4596 86.6L78.8106 86.612L78.8416 70.358C79.4736 69.487 80.301 68.7764 81.2574 68.2831C82.2138 67.7899 83.2725 67.5279 84.3486 67.518C87.0486 67.524 88.7976 68.677 88.7906 72.027L88.7626 86.628ZM116.717 86.682L123.068 86.695L123.115 62.543L116.764 62.531L116.732 78.882C116.077 79.7218 115.243 80.4038 114.29 80.8779C113.336 81.3519 112.289 81.6059 111.225 81.621C108.525 81.621 106.776 80.513 106.783 77.162L106.811 62.512L100.46 62.499L100.427 79.65C100.418 84.35 102.913 87.256 108.214 87.266C109.808 87.295 111.391 86.9861 112.857 86.3598C114.324 85.7335 115.641 84.8039 116.723 83.632L116.717 86.682ZM128.368 86.705L134.719 86.717L134.725 83.617C135.596 84.7673 136.721 85.7009 138.013 86.3453C139.304 86.9896 140.726 87.3273 142.17 87.332C148.27 87.344 152.881 82.752 152.896 74.702C152.912 66.802 148.37 61.992 142.219 61.98C140.775 61.9735 139.349 62.3032 138.054 62.943C136.76 63.5827 135.632 64.515 134.76 65.666L134.784 53.366L128.433 53.354L128.368 86.705ZM134.734 78.967L134.751 70.416C135.389 69.5682 136.212 68.8766 137.158 68.3935C138.103 67.9103 139.145 67.6483 140.207 67.627C143.907 67.634 146.353 70.489 146.345 74.689C146.337 78.889 143.881 81.689 140.18 81.678C139.127 81.6599 138.092 81.4071 137.15 80.9381C136.208 80.4691 135.382 79.7957 134.734 78.967ZM156.672 86.76L163.023 86.772L163.088 53.42L156.737 53.408L156.672 86.76ZM179.525 87.404C187.525 87.42 192.339 81.629 192.352 74.728C192.366 67.878 187.576 62.068 179.574 62.053C171.623 62.037 166.81 67.828 166.797 74.679C166.784 81.579 171.573 87.389 179.525 87.4V87.404ZM179.536 81.754C175.585 81.746 173.391 78.492 173.398 74.692C173.406 70.941 175.612 67.692 179.563 67.703C183.514 67.714 185.763 70.965 185.751 74.716C185.742 78.516 183.487 81.762 179.536 81.754ZM194.501 74.732C194.487 82.183 199.828 87.444 207.279 87.458C212.23 87.468 215.235 85.323 216.84 83.076L212.696 79.218C212.122 80.035 211.356 80.6985 210.466 81.1501C209.575 81.6017 208.588 81.8276 207.59 81.808C203.739 81.801 201.044 78.945 201.053 74.745C201.062 70.545 203.767 67.745 207.617 67.757C208.619 67.7193 209.614 67.9396 210.507 68.3967C211.4 68.8539 212.161 69.5326 212.717 70.368L216.875 66.475C215.275 64.275 212.282 62.116 207.331 62.107C199.877 62.092 194.515 67.332 194.501 74.732ZM235.635 86.913L243.587 86.928L233.76 73.709L243.333 62.776L235.533 62.761L226.36 73.494L226.399 53.543L220.047 53.531L219.983 86.883L226.334 86.895L226.346 80.695L229.253 77.595L235.635 86.913ZM265.135 87.57C266.923 87.7176 268.699 87.1655 270.089 86.03L268.846 82.077C268.198 82.6482 267.357 82.9507 266.494 82.923C264.994 82.923 264.194 81.718 264.199 80.068L264.224 67.417L269.124 67.427L269.133 62.827L264.233 62.817L264.246 56.217L258.995 56.206L258.982 62.806L254.982 62.798L254.973 67.398L258.973 67.406L258.946 81.357C258.942 85.358 261.087 87.562 265.142 87.57H265.135ZM271.36 74.882C271.345 82.532 276.736 87.593 283.988 87.607C287.582 87.7415 291.091 86.4961 293.797 84.126L291.403 80.671C289.522 82.369 287.079 83.3086 284.546 83.308C282.65 83.4118 280.787 82.7744 279.353 81.5305C277.918 80.2866 277.023 78.5337 276.857 76.642L295.511 76.679V75.428C295.526 67.828 290.885 62.269 283.634 62.255C276.488 62.241 271.376 67.881 271.363 74.882H271.36ZM283.628 66.555C284.499 66.5105 285.371 66.6432 286.19 66.9449C287.009 67.2466 287.758 67.7111 288.393 68.3105C289.027 68.9098 289.534 69.6316 289.882 70.4321C290.229 71.2326 290.411 72.0952 290.417 72.968L276.817 72.942C276.888 71.1965 277.642 69.5489 278.917 68.3542C280.191 67.1596 281.884 66.5134 283.631 66.555H283.628ZM298.214 74.934C298.199 82.284 303.34 87.644 310.692 87.659C315.392 87.668 318.247 85.673 319.952 83.376L316.507 80.169C315.889 81.0661 315.057 81.7954 314.088 82.2911C313.118 82.7869 312.04 83.0336 310.951 83.009C306.551 83 303.651 79.645 303.665 74.944C303.679 70.243 306.581 66.944 310.982 66.958C312.073 66.9267 313.154 67.1728 314.124 67.6732C315.094 68.1735 315.921 68.9118 316.528 69.819L319.985 66.625C318.285 64.325 315.442 62.316 310.741 62.307C303.392 62.293 298.231 67.633 298.217 74.934H298.214ZM339.898 87.115L345.149 87.125L345.182 70.025C345.191 65.075 342.596 62.37 337.395 62.36C335.775 62.3711 334.177 62.7226 332.702 63.3917C331.227 64.0609 329.91 65.0327 328.836 66.244L328.86 53.744L323.609 53.734L323.542 87.084L328.793 87.094L328.826 70.243C329.553 69.2739 330.488 68.4801 331.562 67.9197C332.637 67.3594 333.823 67.0468 335.034 67.005C337.984 67.005 339.934 68.164 339.925 71.914L339.898 87.115ZM367.252 87.168L372.503 87.179L372.536 70.179C372.545 65.228 369.95 62.423 364.749 62.413C363.137 62.4244 361.545 62.7766 360.079 63.4465C358.613 64.1164 357.305 65.0889 356.242 66.3L356.248 63L350.997 62.99L350.95 87.142L356.201 87.152L356.234 70.301C356.953 69.3233 357.886 68.5231 358.962 67.9619C360.038 67.4006 361.228 67.0931 362.442 67.063C365.392 67.063 367.29 68.322 367.283 72.072L367.252 87.168ZM389.203 87.811C396.955 87.826 401.667 82.085 401.681 75.134C401.694 68.234 397.004 62.475 389.253 62.459C381.601 62.445 376.839 68.186 376.826 75.086C376.815 82.037 381.555 87.8 389.206 87.811H389.203ZM389.213 83.161C384.762 83.152 382.268 79.397 382.277 75.097C382.285 70.846 384.793 67.097 389.244 67.11C393.744 67.118 396.238 70.874 396.23 75.124C396.224 79.424 393.716 83.169 389.216 83.161H389.213ZM405.956 87.243L411.208 87.254L411.272 53.902L406.021 53.891L405.956 87.243ZM427.909 87.886C435.661 87.901 440.373 82.16 440.387 75.209C440.4 68.309 435.71 62.55 427.958 62.535C420.307 62.52 415.545 68.261 415.531 75.161C415.521 82.112 420.261 87.871 427.912 87.886H427.909ZM427.918 83.236C423.467 83.227 420.974 79.472 420.982 75.172C420.991 70.922 423.498 67.172 427.949 67.185C432.449 67.194 434.949 70.949 434.935 75.199C434.93 79.5 432.422 83.245 427.921 83.236H427.918ZM444.35 93.518C447.296 96.224 450.344 97.13 454.445 97.138C460.397 97.15 466.852 94.812 466.869 86.112L466.914 63.212L461.663 63.202L461.656 66.552C460.767 65.3292 459.603 64.3329 458.257 63.644C456.912 62.9552 455.423 62.593 453.912 62.587C447.712 62.575 443.201 67.166 443.186 74.967C443.17 82.917 447.713 87.376 453.864 87.388C455.377 87.3679 456.865 86.9977 458.211 86.3063C459.557 85.615 460.725 84.6212 461.623 83.403V86.303C461.613 91.254 457.909 92.847 454.459 92.84C451.259 92.834 448.759 91.979 446.813 89.725L444.35 93.518ZM461.634 79.5C460.921 80.484 459.989 81.2888 458.911 81.8507C457.834 82.4127 456.641 82.7164 455.426 82.738C451.276 82.73 448.626 79.625 448.64 74.974C448.654 70.323 451.306 67.229 455.457 67.237C456.671 67.2636 457.863 67.5721 458.938 68.1382C460.013 68.7043 460.942 69.5125 461.652 70.499L461.634 79.5ZM472.41 92.122L471.601 96.822C472.57 97.0395 473.558 97.1587 474.551 97.178C478.302 97.135 481.205 95.841 482.863 91.744L494.571 63.265L488.92 63.254L481.833 81.341L474.817 63.227L469.217 63.216L479.071 87.686L477.871 90.434C477.612 91.1193 477.131 91.6981 476.505 92.0777C475.878 92.4573 475.143 92.6159 474.416 92.528C473.728 92.5194 473.047 92.381 472.41 92.122Z" fill="#F0F0F0"/>
<path fill-rule="evenodd" clip-rule="evenodd" d="M29.973 30.5774L117.345 30.5774V58.0665H123.845V24.0774L23.473 24.0774L23.473 124.449L96.6527 124.449L123.845 97.024V92.4583H117.345V94.3478L93.944 117.949L29.973 117.949L29.973 30.5774Z" fill="#F0F0F0"/>
</svg>
